<svg width="150" height="150" viewBox="0 0 150 150" fill="none" xmlns="http://www.w3.org/2000/svg">
<path d="M119.01 29.565C114.855 29.565 111.45 32.97 111.45 37.125V69.96C111.45 71.34 110.325 72.465 108.945 72.465C107.535 72.465 106.395 71.325 106.395 69.96V21.99C106.395 17.805 103.02 14.43 98.8349 14.43C94.6799 14.43 91.2749 17.805 91.2749 21.99V64.905C91.2749 66.285 90.1349 67.41 88.7699 67.41C87.3599 67.41 86.2199 66.285 86.2199 64.905V16.935C86.2199 12.78 82.8449 9.375 78.6599 9.375C74.4749 9.375 71.0999 12.78 71.0999 16.935V64.905C71.0999 66.285 69.9599 67.41 68.5499 67.41C67.1699 67.41 66.0449 66.285 66.0449 64.905V27.045C66.0449 22.86 62.6399 19.485 58.4849 19.485C54.2999 19.485 50.9249 22.86 50.9249 27.045V90.15L40.6949 76.14C37.6649 71.475 31.7399 69.9 27.4199 72.6C23.0999 75.33 22.0349 81.285 25.0349 85.965C25.0349 85.965 41.5199 110.895 48.5549 121.575C55.5749 132.27 66.9749 140.64 88.2599 140.64C123.495 140.64 126.66 113.43 126.66 105.3V37.125C126.6 32.955 123.195 29.565 119.01 29.565Z" fill="black"/>
</svg>
